# xmcd
#
# Track frame offsets:
#	183
#	12158
#	27078
#	39335
#	53193
#	66978
#	82788
#	96328
#	109468
#	123195
#	136818
#	147713
#	160500
#
# Disc length: 2356 seconds
#
# Revision: 3
# Processed by: cddbd v1.5.2PL0 Copyright (c) Steve Scherf et al.
# Submitted via: EasyCDDAExtractor 8.0.2.1
#
DISCID=a709320d
DTITLE=Various Artist - This is Soul
DYEAR=1986
DGENRE=Soul
TTITLE0=Martha Reeves - Dancing in the street
TTITLE1=Percy Sledge - Warm and tender love
TTITLE2=The Drifters - Under the broadwalk
TTITLE3=Jimmy Rufin - What becomes of the broken hearted
TTITLE4=Ben E King - Stand by me
TTITLE5=Dobie Gray - Drift away
TTITLE6=Ben E King - Spanish harlem
TTITLE7=Martha Reeves - Jimmy Mack
TTITLE8=Eddy Floyd - Knock on wood
TTITLE9=Percy Sledge - Take time to know her
TTITLE10=The Tams - Hey girl, don't bother me
TTITLE11=Fotella Bass - Rescue me
TTITLE12=Harld Melvin and The Blue Notes - If you don't know me by now
EXTD=ID3G:  42
EXTT0=
EXTT1=
EXTT2=
EXTT3=
EXTT4=
EXTT5=
EXTT6=
EXTT7=
EXTT8=
EXTT9=
EXTT10=
EXTT11=
EXTT12=
PLAYORDER=
